Coordinates
version=1
nRows=24
nColumns=22
inDegrees=yes

Units are S.I. units (second, meters, Newtons, ...)
If the header above contains a line with 'inDegrees', this indicates whether rotational values are in degrees (yes) or radians (no).

endheader
time	pelvis_tilt	pelvis_list	pelvis_rotation	pelvis_tx	pelvis_ty	pelvis_tz	hip_flexion_r	hip_adduction_r	hip_rotation_r	knee_angle_r	ankle_angle_r	subtalar_angle_r	hip_flexion_l	hip_adduction_l	hip_rotation_l	knee_angle_l	ankle_angle_l	subtalar_angle_l	lumbar_extension	lumbar_bending	lumbar_rotation
      2.82000000	      0.35988570	     -0.65234582	      1.34493316	     -0.96572861	      1.05560441	     -0.36587847	     21.55585201	      0.70220040	     -7.26931038	    -13.03210173	      5.90990058	      2.00699118	     -7.30818152	      1.12578029	     -3.68757073	    -17.05557802	     19.83476488	      1.03559331	     -8.64235591	     -0.78068036	     -9.97602375
      2.83000000	      0.41744920	     -0.90224920	      1.50837998	     -0.95568199	      1.05489829	     -0.36470402	     21.57526346	      1.05560082	     -6.98234516	    -13.82654302	      5.10144546	      1.66205334	     -7.53572505	      0.71763169	     -3.50045406	    -17.81669744	     19.80128822	      1.39860608	     -8.54569997	     -0.49904331	    -10.00032457
      2.84000000	      0.46493062	     -1.14960787	      1.68014361	     -0.94545087	      1.05444274	     -0.36352168	     21.60091555	      1.38733295	     -6.72105841	    -14.80639602	      4.28639894	      1.22773072	     -7.73771389	      0.31264021	     -3.25147663	    -18.60912336	     19.60868778	      1.87413440	     -8.40788011	     -0.21712173	    -10.03853616
      2.85000000	      0.50358628	     -1.40639564	      1.85929831	     -0.93504624	      1.05426951	     -0.36233492	     21.61139327	      1.71253749	     -6.50007409	    -15.87910153	      3.58969801	      0.80047365	     -7.89562238	     -0.10398648	     -2.96602517	    -19.46494499	     19.27022934	      2.41767727	     -8.23019867	      0.08011979	    -10.09569612
      2.86000000	      0.53695801	     -1.66337911	      2.04113926	     -0.92448466	      1.05441510	     -0.36113107	     21.57667950	      2.03009571	     -6.30761454	    -16.94708208	      3.08703928	      0.40395811	     -8.00108919	     -0.52081324	     -2.64672154	    -20.39887363	     18.75740593	      3.06843881	     -8.01803565	      0.37890108	    -10.17686257
      2.87000000	      0.56676768	     -1.91348948	      2.21682938	     -0.91378497	      1.05489745	     -0.35989648	     21.47133064	      2.34340806	     -6.12247731	    -17.92763572	      2.80144456	      0.04671644	     -8.04675923	     -0.92629192	     -2.28787841	    -21.42422868	     18.05655502	      3.85852650	     -7.77517172	      0.66642737	    -10.25608594
      2.88000000	      0.59802610	     -2.16559065	      2.41930225	     -0.90300818	      1.05570016	     -0.35865983	     21.27121495	      2.65643192	     -5.97731432	    -18.75995703	      2.69965411	     -0.24936012	     -7.99401387	     -1.34235213	     -1.91239629	    -22.60244800	     17.18364962	      4.70637205	     -7.51678647	      0.95687063	    -10.39496022
      2.89000000	      0.63037253	     -2.39195285	      2.62532127	     -0.89215708	      1.05680128	     -0.35739711	     20.96676516	      2.95320916	     -5.85105823	    -19.41326136	      2.74583432	     -0.54219859	     -7.85119267	     -1.72971857	     -1.50613995	    -23.91547594	     16.09194329	      5.69056541	     -7.24116321	      1.21257204	    -10.52673646
      2.90000000	      0.66984411	     -2.59586806	      2.84485328	     -0.88127963	      1.05814940	     -0.35608716	     20.55726294	      3.24010576	     -5.74522635	    -19.89283701	      2.91874853	     -0.84369110	     -7.60701356	     -2.09923980	     -1.08553403	    -25.37987319	     14.78005265	      6.77973376	     -6.96599218	      1.43112640	    -10.66241165
      2.91000000	      0.71520191	     -2.77388843	      3.08411282	     -0.87040783	      1.05968905	     -0.35478298	     20.03667289	      3.50542304	     -5.69485092	    -20.17727131	      3.17493883	     -1.15253550	     -7.24896677	     -2.44359594	     -0.64536092	    -27.00357229	     13.25065703	      7.92635503	     -6.69372854	      1.61751002	    -10.78603059
      2.92000000	      0.77024032	     -2.92894605	      3.34583581	     -0.85958193	      1.06136939	     -0.35346967	     19.41326509	      3.75082389	     -5.70867287	    -20.28624186	      3.46352255	     -1.45688188	     -6.77792610	     -2.76994627	     -0.20047838	    -28.77369326	     11.49237963	      9.08427988	     -6.43794704	      1.76916090	    -10.88965642
      2.93000000	      0.83968898	     -3.06437728	      3.64949416	     -0.84884325	      1.06313302	     -0.35222128	     18.68694903	      3.96786525	     -5.81140437	    -20.22605830	      3.76539016	     -1.72594442	     -6.19005921	     -3.08305799	      0.25073889	    -30.68481364	      9.54248034	     10.16356823	     -6.20903940	      1.89994747	    -11.00126813
      2.94000000	      0.92461712	     -3.20304160	      3.94793066	     -0.83821666	      1.06490612	     -0.35095789	     17.88450694	      4.19561675	     -5.96197675	    -20.04152265	      4.08515895	     -1.96487643	     -5.50233798	     -3.40144148	      0.67046182	    -32.70603145	      7.43190929	     11.20302961	     -6.01706642	      2.03010225	    -11.03399209
      2.95000000	      1.02504834	     -3.34544626	      4.21957936	     -0.82772509	      1.06663267	     -0.34967798	     17.01933870	      4.43683254	     -6.13953022	    -19.75319899	      4.40489916	     -2.16030308	     -4.72336353	     -3.72539960	      1.02599292	    -34.81336025	      5.23879454	     12.19500164	     -5.86594573	      2.16022220	    -10.95436413
      2.96000000	      1.14401077	     -3.51071355	      4.51807589	     -0.81740951	      1.06826195	     -0.34847340	     16.09208848	      4.69361308	     -6.40328523	    -19.36051343	      4.74353481	     -2.24995426	     -3.84389565	     -4.07596909	      1.37413346	    -37.00389039	      3.07137181	     12.88784673	     -5.75957061	      2.32037522	    -10.85681800
      2.97000000	      1.27464164	     -3.68790423	      4.76722612	     -0.80729005	      1.06974160	     -0.34723258	     15.14098505	      4.97621364	     -6.66477982	    -18.91728919	      5.08184136	     -2.27851928	     -2.88189359	     -4.44013961	      1.63634535	    -39.24196363	      1.04451514	     13.45107320	     -5.69882209	      2.48943211	    -10.64037503
      2.98000000	      1.42341759	     -3.87300562	      4.96584282	     -0.79740502	      1.07106185	     -0.34595028	     14.17563193	      5.28084193	     -6.90723047	    -18.45081688	      5.40629469	     -2.24869279	     -1.85141565	     -4.81362567	      1.82108070	    -41.50649266	     -0.73715137	     13.78812177	     -5.69761580	      2.66273426	    -10.32453172
      2.99000000	      1.57969767	     -4.08344754	      5.12573826	     -0.78773699	      1.07218550	     -0.34462280	     13.21060715	      5.62337931	     -7.13803072	    -17.96672520	      5.75890846	     -2.18046151	     -0.74558474	     -5.22374561	      1.93108335	    -43.77974438	     -2.13712701	     13.95806335	     -5.73418848	      2.85691046	     -9.95060989
      3.00000000	      1.73840241	     -4.32521057	      5.24340185	     -0.77830678	      1.07311539	     -0.34323261	     12.26428761	      6.01222137	     -7.33047627	    -17.48576509	      6.11229851	     -2.08331058	      0.43119452	     -5.67603148	      1.97847375	    -46.03707666	     -3.10198494	     13.93098004	     -5.80711451	      3.07714108	     -9.52207095
      3.01000000	      1.90163784	     -4.58715450	      5.31902641	     -0.76909630	      1.07388621	     -0.34179156	     11.33789759	      6.43601323	     -7.45986264	    -17.02130714	      6.45511169	     -1.98125851	      1.65708260	     -6.15855073	      1.96744488	    -48.23592321	     -3.64524879	     13.68229101	     -5.91318628	      3.31289485	     -9.05476337
      3.02000000	      2.03670009	     -4.83344803	      5.35993180	     -0.76008888	      1.07449513	     -0.34032514	     10.46195596	      6.85010392	     -7.52627397	    -16.57779581	      6.82268186	     -1.85589503	      2.94476500	     -6.61707423	      1.92965116	    -50.33226421	     -3.82512402	     12.97642139	     -6.01068111	      3.51872493	     -8.57930716
      3.03000000	      2.21346137	     -5.07849735	      5.36177820	     -0.75124422	      1.07510770	     -0.33882117	      9.54963754	      7.28106842	     -7.51404917	    -16.13114369	      7.12323644	     -1.81631572	      4.19668305	     -7.07346156	      1.86973237	    -52.28110972	     -3.73184505	     12.20565060	     -6.17697817	      3.72011676	     -8.09461142
      3.04000000	      2.39806788	     -5.29450028	      5.32629210	     -0.74252780	      1.07570332	     -0.33731772	      8.63766584	      7.68826141	     -7.44413381	    -15.69748542	      7.41490342	     -1.81399226	      5.42725342	     -7.48466013	      1.79780661	    -54.05010001	     -3.41174432	     11.24250295	     -6.36621217	      3.88563386	     -7.61318851
      3.05000000	      2.58727339	     -5.46168550	      5.25358233	     -0.73390643	      1.07631630	     -0.33582935	      7.71972246	      8.04828719	     -7.31787831	    -15.26726207	      7.69106698	     -1.84410039	      6.61767502	     -7.82074278	      1.72147004	    -55.60686420	     -2.91599973	     10.15155677	     -6.57092372	      3.99407339	     -7.14695189
